<?xml version="1.0" encoding="UTF-8" standalone="no"?>
<!DOCTYPE svg PUBLIC "-//W3C//DTD SVG 1.1//EN" "http://www.w3.org/Graphics/SVG/1.1/DTD/svg11.dtd">
<svg width="100%" height="100%" viewBox="0 0 32 32" version="1.1" xmlns="http://www.w3.org/2000/svg" xmlns:xlink="http://www.w3.org/1999/xlink" xml:space="preserve" xmlns:serif="http://www.serif.com/" style="fill-rule:evenodd;clip-rule:evenodd;stroke-linejoin:round;stroke-miterlimit:2;">
    <g id="Combined-Shape" transform="matrix(0.0533333,0,0,0.0533333,8.88178e-16,8.88178e-16)">
        <path d="M500,100L500,500L100,500L100,100L500,100ZM268.358,200L229.403,200L155.444,400L190.588,400L204.552,360.902L293.086,360.902L306.749,400L344.011,400L268.358,200ZM406.397,200L371.393,200L371.393,400L406.397,400L406.397,200ZM248.586,233.555L283.452,333.333L214.273,333.333L248.586,233.555ZM533.333,400L600,400L600,466.667L533.333,466.667L533.333,400ZM133.333,533.333L200,533.333L200,600L133.333,600L133.333,533.333ZM266.667,533.333L333.333,533.333L333.333,600L266.667,600L266.667,533.333ZM133.333,0L200,0L200,66.667L133.333,66.667L133.333,0ZM400,533.333L466.667,533.333L466.667,600L400,600L400,533.333ZM266.667,0L333.333,0L333.333,66.667L266.667,66.667L266.667,0ZM400,0L466.667,0L466.667,66.667L400,66.667L400,0ZM533.333,266.667L600,266.667L600,333.333L533.333,333.333L533.333,266.667ZM0,400L66.667,400L66.667,466.667L0,466.667L0,400ZM533.333,133.333L600,133.333L600,200L533.333,200L533.333,133.333ZM0,266.667L66.667,266.667L66.667,333.333L0,333.333L0,266.667ZM0,133.333L66.667,133.333L66.667,200L0,200L0,133.333Z" style="fill:white;"/>
    </g>
</svg>
