<?xml version="1.0" encoding="UTF-8" standalone="no"?>
<!DOCTYPE svg PUBLIC "-//W3C//DTD SVG 1.1//EN" "http://www.w3.org/Graphics/SVG/1.1/DTD/svg11.dtd">
<svg width="100%" height="100%" viewBox="0 0 32 32" version="1.1" xmlns="http://www.w3.org/2000/svg" xmlns:xlink="http://www.w3.org/1999/xlink" xml:space="preserve" xmlns:serif="http://www.serif.com/" style="fill-rule:evenodd;clip-rule:evenodd;stroke-linecap:round;stroke-linejoin:round;stroke-miterlimit:10;">
    <g transform="matrix(1,0,0,1,-0.106079,-2.43564)">
        <g transform="matrix(1.08514,0,0,1.31287,-0.979056,-2.81585)">
            <path d="M17,4C15.9,4 14.9,4.4 14,5L9,5C8.1,4.4 7.1,4 6,4C3.2,4 1,6.2 1,9C1,11.8 3.2,14 6,14C7.1,14 8.1,13.6 9,13L14,13C14.8,13.6 15.9,14 17,14C19.8,14 22,11.8 22,9C22,6.2 19.8,4 17,4ZM17,5.523C18.876,5.523 20.157,7.124 20.157,9C20.157,10.876 18.876,12.477 17,12.477C16.351,12.477 15.71,12.226 15.239,11.872C14.899,11.618 14.458,11.477 14,11.477L9,11.477C8.579,11.477 8.171,11.596 7.843,11.814C7.284,12.187 6.683,12.477 6,12.477C4.124,12.477 2.843,10.876 2.843,9C2.843,7.124 4.124,5.523 6,5.523C6.683,5.523 7.284,5.813 7.843,6.186C8.171,6.404 8.579,6.523 9,6.523L14,6.523C14.421,6.523 14.829,6.404 15.157,6.186C15.716,5.813 16.317,5.523 17,5.523Z" style="fill:white;"/>
        </g>
        <path d="M6,7L6,11" style="fill:none;fill-rule:nonzero;stroke:white;stroke-width:2px;"/>
        <path d="M4,9L8,9" style="fill:none;fill-rule:nonzero;stroke:white;stroke-width:2px;"/>
        <g transform="matrix(0.905937,0,0,0.905937,6.21946,-0.0751302)">
            <circle cx="12.987" cy="8.715" r="1.087" style="fill:white;"/>
        </g>
        <g transform="matrix(0.905937,0,0,0.905937,4.24994,2.2844)">
            <circle cx="12.987" cy="8.715" r="1.087" style="fill:white;"/>
        </g>
    </g>
    <g transform="matrix(1,0,0,1,9.10608,16.4356)">
        <g transform="matrix(1.08514,0,0,1.31287,-0.979056,-2.81585)">
            <path d="M17,4C15.9,4 14.9,4.4 14,5L9,5C8.1,4.4 7.1,4 6,4C3.2,4 1,6.2 1,9C1,11.8 3.2,14 6,14C7.1,14 8.1,13.6 9,13L14,13C14.8,13.6 15.9,14 17,14C19.8,14 22,11.8 22,9C22,6.2 19.8,4 17,4ZM17,5.523C18.876,5.523 20.157,7.124 20.157,9C20.157,10.876 18.876,12.477 17,12.477C16.351,12.477 15.71,12.226 15.239,11.872C14.899,11.618 14.458,11.477 14,11.477L9,11.477C8.579,11.477 8.171,11.596 7.843,11.814C7.284,12.187 6.683,12.477 6,12.477C4.124,12.477 2.843,10.876 2.843,9C2.843,7.124 4.124,5.523 6,5.523C6.683,5.523 7.284,5.813 7.843,6.186C8.171,6.404 8.579,6.523 9,6.523L14,6.523C14.421,6.523 14.829,6.404 15.157,6.186C15.716,5.813 16.317,5.523 17,5.523Z" style="fill:white;"/>
        </g>
        <path d="M6,7L6,11" style="fill:none;fill-rule:nonzero;stroke:white;stroke-width:2px;"/>
        <path d="M4,9L8,9" style="fill:none;fill-rule:nonzero;stroke:white;stroke-width:2px;"/>
        <g transform="matrix(0.905937,0,0,0.905937,6.21946,-0.0751302)">
            <circle cx="12.987" cy="8.715" r="1.087" style="fill:white;"/>
        </g>
        <g transform="matrix(0.905937,0,0,0.905937,4.24994,2.2844)">
            <circle cx="12.987" cy="8.715" r="1.087" style="fill:white;"/>
        </g>
    </g>
</svg>
