<?xml version="1.0" encoding="UTF-8" standalone="no"?>
<!DOCTYPE svg PUBLIC "-//W3C//DTD SVG 1.1//EN" "http://www.w3.org/Graphics/SVG/1.1/DTD/svg11.dtd">
<svg width="100%" height="100%" viewBox="0 0 32 32" version="1.1" xmlns="http://www.w3.org/2000/svg" xmlns:xlink="http://www.w3.org/1999/xlink" xml:space="preserve" xmlns:serif="http://www.serif.com/" style="fill-rule:evenodd;clip-rule:evenodd;stroke-linejoin:round;stroke-miterlimit:2;">
    <g transform="matrix(0.0497808,0,0,0.0497808,-2.84657,-4.98107)">
        <path d="M692.679,107.323C687.992,102.636 681.628,100.001 675,100L674.921,100L475.549,100.629C468.124,100.652 461.083,103.982 456.354,109.706L236.366,376.009L210.355,349.997C190.942,330.637 159.053,330.639 139.642,350L100.003,389.642C90.628,399.015 85.355,411.743 85.355,425C85.355,438.256 90.626,450.982 100,460.355L165.271,525.629L71.704,619.196C52.34,638.605 52.342,670.497 71.707,689.905L110.095,728.293C119.469,737.667 132.195,742.938 145.451,742.938C158.708,742.938 171.434,737.667 180.808,728.293L274.371,634.726L339.645,700.003C359.059,719.361 390.946,719.36 410.358,700L449.997,660.358C459.372,650.985 464.645,638.257 464.645,625C464.645,611.744 459.374,599.018 450,589.645L423.99,563.635L690.292,343.646C696.017,338.917 699.347,331.876 699.371,324.451L700,125.079C700.021,118.424 697.384,112.029 692.679,107.323ZM649.408,312.567L388.476,528.12L347.856,487.5L517.679,317.679C522.366,312.992 525.002,306.628 525.002,300C525.002,286.284 513.716,274.998 500,274.998C493.372,274.998 487.008,277.634 482.321,282.321L312.5,452.144L271.881,411.523L487.433,150.591L649.921,150.079L649.408,312.567Z" style="fill:white;fill-rule:nonzero;"/>
    </g>
</svg>
